<svg xmlns="http://www.w3.org/2000/svg" viewBox="0 0 1280 720"  preserveAspectRatio="none">
    <path  fill="#f2ebfb" d="M0,400L30,370C60,340,120,280,180,270C240,260,300,290,360,310C420,330,480,290,540,280C600,270,660,300,720,290C780,280,840,240,900,220C960,200,1020,220,1080,230C1140,240,1200,220,1260,230C1320,240,1380,260,1410,270L1440,280L1440,0L1410,0C1380,0,1320,0,1260,0C1200,0,1140,0,1080,0C1020,0,960,0,900,0C840,0,780,0,720,0C660,0,600,0,540,0C480,0,420,0,360,0C300,0,240,0,180,0C120,0,60,0,30,0L0,0Z"></path>
</svg>
