<?xml version="1.0" encoding="utf-8"?>
<svg viewBox="0 0 650 650" style="enable-background:new 0 0 650 650;" xmlns="http://www.w3.org/2000/svg">
  <defs>
    <style type="text/css">
	.st0{fill-rule:evenodd;clip-rule:evenodd;fill:#2E2F2F;}
	.st1{fill-rule:evenodd;clip-rule:evenodd;fill:#FFFFFF;}
	.st2{fill-rule:evenodd;clip-rule:evenodd;fill:#D9D9D9;}
</style>
  </defs>
  <g id="iPhone_12Pro" style="" transform="matrix(2.4788429737091064, 0, 0, 2.2670459747314453, -479.4018249511719, -151.48370361328125)">
    <path class="st0" d="M407.6,80.8h-32.1c-4.8,0-8.7,3.9-8.7,8.7c0,4.3-3.4,7.7-7.7,7.7h-67.2c-4.3,0-7.7-3.5-7.7-7.7&#10;&#9;&#9;c0-4.8-3.9-8.7-8.7-8.7h-33.1c-16.8,0-30.5,13.7-30.5,30.5v427.3c0,16.8,13.7,30.5,30.5,30.5h165.2c16.8,0,30.5-13.7,30.5-30.5&#10;&#9;&#9;V111.3C438.1,94.5,424.5,80.8,407.6,80.8z M437.1,538.7c0,16.3-13.2,29.5-29.5,29.5H242.3c-16.3,0-29.5-13.2-29.5-29.5V111.3&#10;&#9;&#9;c0-16.3,13.2-29.5,29.5-29.5h33.1c4.3,0,7.7,3.5,7.7,7.7c0,4.8,3.9,8.7,8.7,8.7H359c4.8,0,8.7-3.9,8.7-8.7c0-4.3,3.5-7.7,7.7-7.7&#10;&#9;&#9;h32.2c16.3,0,29.5,13.2,29.5,29.5L437.1,538.7L437.1,538.7z"/>
    <path class="st1" d="M437.1,111.3v427.3c0,16.3-13.2,29.5-29.5,29.5H242.3c-16.3,0-29.5-13.2-29.5-29.5V111.3&#10;&#9;&#9;c0-16.3,13.2-29.5,29.5-29.5h33.1c4.3,0,7.7,3.5,7.7,7.7c0,4.8,3.9,8.7,8.7,8.7H359c4.8,0,8.7-3.9,8.7-8.7c0-4.3,3.5-7.7,7.7-7.7&#10;&#9;&#9;h32.2C423.9,81.8,437.1,95,437.1,111.3z"/>
    <path class="st0" d="M451.1,221h-1V109.3c0-22.4-18.1-40.5-40.5-40.5H240.3c-22.4,0-40.5,18.1-40.5,40.5v63.5h-0.9&#10;&#9;&#9;c-1.4,0-2.5,1.1-2.5,2.5v16.9c0,1.4,1.1,2.5,2.5,2.5h0.9v15.5h-1c-1.4,0-2.5,1.1-2.5,2.5v33.8c0,1.4,1.1,2.5,2.5,2.5h1v9.9h-1&#10;&#9;&#9;c-1.4,0-2.5,1.1-2.5,2.5V293c0,1.4,1.1,2.5,2.5,2.5h1v245.2c0,22.4,18.1,40.5,40.5,40.5h169.3c22.4,0,40.5-18.1,40.5-40.5V279.9h1&#10;&#9;&#9;c1.4,0,2.5-1.1,2.5-2.5v-53.8C453.6,222.1,452.5,221,451.1,221z M199.9,294.5h-1c-0.8,0-1.5-0.7-1.5-1.5v-31.6&#10;&#9;&#9;c0-0.8,0.7-1.5,1.5-1.5h1V294.5z M199.9,248h-1c-0.8,0-1.5-0.7-1.5-1.5v-33.8c0-0.8,0.7-1.5,1.5-1.5h1V248z M199.9,193.7H199&#10;&#9;&#9;c-0.8,0-1.5-0.7-1.5-1.5v-16.8c0-0.8,0.7-1.5,1.5-1.5h0.9V193.7z M449.1,540.7c0,21.8-17.7,39.5-39.5,39.5H240.3&#10;&#9;&#9;c-21.8,0-39.5-17.7-39.5-39.5V109.3c0-21.8,17.7-39.5,39.5-39.5h169.3c21.8,0,39.5,17.7,39.5,39.5V540.7z M452.6,277.4&#10;&#9;&#9;c0,0.8-0.7,1.5-1.5,1.5h-1v-56.8h1c0.8,0,1.5,0.7,1.5,1.5V277.4z"/>
    <path class="st2" d="M409.6,69.8H240.3c-21.8,0-39.5,17.7-39.5,39.5v431.3c0,21.8,17.7,39.5,39.5,39.5h169.3&#10;&#9;&#9;c21.8,0,39.5-17.7,39.5-39.5V109.3C449.1,87.5,431.5,69.8,409.6,69.8z M346.5,80.8c1.9,0,3.5,1.6,3.5,3.5s-1.6,3.5-3.5,3.5&#10;&#9;&#9;s-3.5-1.5-3.5-3.5S344.6,80.8,346.5,80.8z M300.4,82.3H336c1.1,0,2,0.9,2,2s-0.9,2-2,2h-35.6c-1.1,0-2-0.9-2-2&#10;&#9;&#9;C298.4,83.2,299.2,82.3,300.4,82.3z M438.1,538.7c0,16.8-13.7,30.5-30.5,30.5H242.3c-16.8,0-30.5-13.7-30.5-30.5V111.3&#10;&#9;&#9;c0-16.8,13.7-30.5,30.5-30.5h33.1c4.8,0,8.7,3.9,8.7,8.7c0,4.3,3.5,7.7,7.7,7.7H359c4.3,0,7.7-3.5,7.7-7.7c0-4.8,3.9-8.7,8.7-8.7&#10;&#9;&#9;h32.2c16.8,0,30.5,13.7,30.5,30.5L438.1,538.7L438.1,538.7z"/>
    <path class="st0" d="M336,82.3h-35.6c-1.1,0-2,0.9-2,2s0.9,2,2,2H336c1.1,0,2-0.9,2-2C338,83.2,337.1,82.3,336,82.3z M336,85.3&#10;&#9;&#9;h-35.6c-0.6,0-1-0.5-1-1c0-0.6,0.5-1,1-1H336c0.6,0,1,0.5,1,1C337,84.9,336.5,85.3,336,85.3z"/>
    <path class="st2" d="M337,84.3c0,0.6-0.5,1-1,1h-35.6c-0.6,0-1-0.5-1-1c0-0.6,0.5-1,1-1H336C336.5,83.3,337,83.7,337,84.3z"/>
    <path class="st0" d="M346.5,80.8c-1.9,0-3.5,1.6-3.5,3.5s1.6,3.5,3.5,3.5s3.5-1.5,3.5-3.5S348.5,80.8,346.5,80.8z M346.5,86.8&#10;&#9;&#9;c-1.4,0-2.5-1.1-2.5-2.5s1.1-2.5,2.5-2.5s2.5,1.1,2.5,2.5C349,85.7,348,86.8,346.5,86.8z"/>
    <path class="st2" d="M349,84.3c0,1.4-1.1,2.5-2.5,2.5s-2.5-1.1-2.5-2.5s1.1-2.5,2.5-2.5S349,82.9,349,84.3z"/>
  </g>
</svg>